<?xml version="1.0" encoding="UTF-8"?>
<svg version="1.1" xmlns="http://www.w3.org/2000/svg" width="275" height="156">
<path d="M0 0 C90.75 0 181.5 0 275 0 C275 51.48 275 102.96 275 156 C184.25 156 93.5 156 0 156 C0 104.52 0 53.04 0 0 Z " fill="#FEFEFE" transform="translate(0,0)"/>
<path d="M0 0 C1.32 0 2.64 0 4 0 C5.00205736 1.66543052 6.00179077 3.33226018 7 5 C9.61311137 6.59850163 9.61311137 6.59850163 12.625 7.8125 C18.77487344 10.68941528 25.84183745 14.6836749 29 21 C29.94875 20.195625 30.8975 19.39125 31.875 18.5625 C35.14689639 15.78850089 37.02721891 14.87351479 41.3515625 14.90234375 C42.62773437 14.90717773 42.62773437 14.90717773 43.9296875 14.91210938 C44.81914062 14.92048828 45.70859375 14.92886719 46.625 14.9375 C47.5221875 14.94201172 48.419375 14.94652344 49.34375 14.95117188 C51.56256648 14.96297409 53.78125018 14.97943845 56 15 C56 15.33 56 15.66 56 16 C55.09378906 16.03738281 54.18757813 16.07476562 53.25390625 16.11328125 C42.74483752 16.54517912 42.74483752 16.54517912 33 20 C32.01 24.455 32.01 24.455 31 29 C37.27 29 43.54 29 50 29 C49.01 29.66 48.02 30.32 47 31 C48.32 31.66 49.64 32.32 51 33 C51 33.66 51 34.32 51 35 C55.29 35.33 59.58 35.66 64 36 C64 36.33 64 36.66 64 37 C60.7 37 57.4 37 54 37 C54 37.99 54 38.98 54 40 C59.61 40 65.22 40 71 40 C71.33 40.66 71.66 41.32 72 42 C67.71 42 63.42 42 59 42 C59 42.66 59 43.32 59 44 C59.680625 44.12375 60.36125 44.2475 61.0625 44.375 C64 45 64 45 67.25 46.0625 C71.61521386 47.15380346 75.53272662 47.18233769 80 47 C78.68 46.34 77.36 45.68 76 45 C76.58007812 44.93941406 77.16015625 44.87882812 77.7578125 44.81640625 C82.20092863 44.33983439 86.59905423 43.78991334 91 43 C91.33 42.01 91.66 41.02 92 40 C94.75 39.25 94.75 39.25 98 39 C100.375 40.8125 100.375 40.8125 102 43 C102 43.66 102 44.32 102 45 C103.65 45 105.3 45 107 45 C107.226875 45.639375 107.45375 46.27875 107.6875 46.9375 C108.120625 47.618125 108.55375 48.29875 109 49 C110.66475686 49.34274406 112.33195323 49.67364302 114 50 C118.8608502 52.44492068 123.20408178 55.22363971 126 60 C126.25 63.3125 126.25 63.3125 126 66 C118.55210537 67.8222254 111.52463039 68.27891068 103.875 68.1875 C102.84246094 68.18685547 101.80992187 68.18621094 100.74609375 68.18554688 C95.07612433 68.15304387 89.60777327 67.8404936 84 67 C84 67.66 84 68.32 84 69 C85.65 69 87.3 69 89 69 C89 69.99 89 70.98 89 72 C87.02 72 85.04 72 83 72 C83 72.99 83 73.98 83 75 C85.31 75 87.62 75 90 75 C90 75.66 90 76.32 90 77 C87.03 77 84.06 77 81 77 C81 72.71 81 68.42 81 64 C82.32 63.67 83.64 63.34 85 63 C84.67 60.36 84.34 57.72 84 55 C83.01 55 82.02 55 81 55 C80.34 56.32 79.68 57.64 79 59 C78 58 78 58 77.9375 55.4375 C77.958125 54.633125 77.97875 53.82875 78 53 C77.01 53 76.02 53 75 53 C74.67 55.64 74.34 58.28 74 61 C73.01 61 72.02 61 71 61 C71 60.34 71 59.68 71 59 C70.34 59 69.68 59 69 59 C69 58.34 69 57.68 69 57 C68.34 57 67.68 57 67 57 C67 58.32 67 59.64 67 61 C66.01 61 65.02 61 64 61 C63.67 58.36 63.34 55.72 63 53 C61.68 53 60.36 53 59 53 C59 54.98 59 56.96 59 59 C58.01 59.495 58.01 59.495 57 60 C56.67 59.34 56.34 58.68 56 58 C54.68 58.33 53.36 58.66 52 59 C52 56.36 52 53.72 52 51 C50.68 51 49.36 51 48 51 C47.67 53.64 47.34 56.28 47 59 C44.36 58.67 41.72 58.34 39 58 C39 56.68 39 55.36 39 54 C38.01 54 37.02 54 36 54 C36 55.32 36 56.64 36 58 C28.98194143 59.10087193 22.09434233 59.09733092 15 59 C15 58.01 15 57.02 15 56 C13.02 55.67 11.04 55.34 9 55 C9 55.99 9 56.98 9 58 C6.4580411 58.05434116 3.91726318 58.0938339 1.375 58.125 C0.66214844 58.14175781 -0.05070312 58.15851563 -0.78515625 58.17578125 C-5.23421356 58.21659829 -8.85220559 57.82502954 -13 56 C-13.33 55.34 -13.66 54.68 -14 54 C-14.99 54 -15.98 54 -17 54 C-17 52.68 -17 51.36 -17 50 C-20.04386724 49.91773332 -22.07175348 50.02391783 -25 51 C-25 52.32 -25 53.64 -25 55 C-25.99 55 -26.98 55 -28 55 C-28 55.66 -28 56.32 -28 57 C-30.97 57.495 -30.97 57.495 -34 58 C-34 59.65 -34 61.3 -34 63 C-34.99 63 -35.98 63 -37 63 C-37.33 59.37 -37.66 55.74 -38 52 C-40.475 52.495 -40.475 52.495 -43 53 C-43.33 55.64 -43.66 58.28 -44 61 C-46.64 61 -49.28 61 -52 61 C-52 61.66 -52 62.32 -52 63 C-53.65 63 -55.3 63 -57 63 C-57 64.32 -57 65.64 -57 67 C-60.1875 67.375 -60.1875 67.375 -64 67 C-67.16605883 64.3728448 -68.55745982 62.76074495 -69.55078125 58.80859375 C-69.84380418 55.41297509 -69.75619326 53.03179381 -67.703125 50.23046875 C-63.66219402 46.56953357 -58.92919817 44.23592494 -54 42 C-51.47690866 40.82473379 -49.99342574 39.99342574 -48 38 C-47.34 38 -46.68 38 -46 38 C-45.34 37.01 -44.68 36.02 -44 35 C-38.72451844 32.20076489 -33.9232611 31.3895115 -28 31 C-27.67 29.68 -27.34 28.36 -27 27 C-21.76824163 26.61718841 -18.62197306 27.78145293 -14 30 C-14.495 31.485 -14.495 31.485 -15 33 C-12.03 33 -9.06 33 -6 33 C-6 32.34 -6 31.68 -6 31 C-8.31 30.67 -10.62 30.34 -13 30 C-13 29.34 -13 28.68 -13 28 C-9.04 27.505 -9.04 27.505 -5 27 C-10.94 26.67 -16.88 26.34 -23 26 C-23 25.67 -23 25.34 -23 25 C-18.60756315 24.90023294 -14.21574728 24.82811442 -9.82250977 24.78027344 C-8.33183282 24.76030542 -6.8412327 24.7331208 -5.35083008 24.69824219 C9.6552777 24.35616531 9.6552777 24.35616531 16.32055664 28.13378906 C18.12942991 29.22919639 18.12942991 29.22919639 21 29 C19.7764437 28.03451388 18.54585189 27.07794102 17.3125 26.125 C16.28576172 25.32449219 16.28576172 25.32449219 15.23828125 24.5078125 C9.94787802 20.94394575 4.14529441 20.20675047 -2.02929688 19.23242188 C-6.49303077 18.46660592 -9.98198255 17.19596227 -14 15 C-16.23525035 14.31363375 -16.23525035 14.31363375 -18 14 C-17.360625 13.7525 -16.72125 13.505 -16.0625 13.25 C-15.381875 12.8375 -14.70125 12.425 -14 12 C-13.91621094 11.39027344 -13.83242187 10.78054687 -13.74609375 10.15234375 C-12.57040481 6.76069661 -10.07526589 5.98431318 -7 4.3125 C-3.28009172 2.4673105 -3.28009172 2.4673105 0 0 Z " fill="#080808" transform="translate(117,47)"/>
<path d="M0 0 C1.32 0 2.64 0 4 0 C4 2.64 4 5.28 4 8 C5.97536745 7.65213292 5.97536745 7.65213292 8 7 C8.33 6.34 8.66 5.68 9 5 C9.495 6.485 9.495 6.485 10 8 C10.33 6.02 10.66 4.04 11 2 C12.32 2 13.64 2 15 2 C15.495 5.96 15.495 5.96 16 10 C16.99 10 17.98 10 19 10 C19 8.68 19 7.36 19 6 C19.66 6 20.32 6 21 6 C21 6.66 21 7.32 21 8 C21.66 8 22.32 8 23 8 C23 8.66 23 9.32 23 10 C23.99 10.33 24.98 10.66 26 11 C25.67 11.33 25.34 11.66 25 12 C26.32 12.66 27.64 13.32 29 14 C29 14.66 29 15.32 29 16 C26.36 16 23.72 16 21 16 C21.99 19.465 21.99 19.465 23 23 C24.98 23.495 24.98 23.495 27 24 C27 22.35 27 20.7 27 19 C27.99 19 28.98 19 30 19 C30 20.98 30 22.96 30 25 C21.42857143 26.42857143 21.42857143 26.42857143 18 24 C17.67 24.66 17.34 25.32 17 26 C6.11 26 -4.78 26 -16 26 C-16.495 21.545 -16.495 21.545 -17 17 C-17.433125 18.11375 -17.86625 19.2275 -18.3125 20.375 C-20 24 -20 24 -23 26 C-25.19921875 25.94140625 -25.19921875 25.94140625 -27.6875 25.5625 C-31.11716476 25.11689392 -33.97104619 25.01829154 -37.375 25.625 C-41 26 -41 26 -43.5 25 C-45.79987517 21.93349977 -45.53037595 19.71263162 -45 16 C-43.5 14 -43.5 14 -41 13 C-38.24432197 13.07208011 -35.73472187 13.52250888 -33 14 C-29.38970831 14 -26.44193324 13.03907418 -23 12 C-23 11.01 -23 10.02 -23 9 C-23.88558594 9.01160156 -24.77117187 9.02320312 -25.68359375 9.03515625 C-35.49477202 9.10662165 -45.21310069 8.67082786 -55 8 C-55 7.67 -55 7.34 -55 7 C-49.72 7 -44.44 7 -39 7 C-39 6.01 -39 5.02 -39 4 C-36.03 4.495 -36.03 4.495 -33 5 C-33 5.99 -33 6.98 -33 8 C-22.605 7.505 -22.605 7.505 -12 7 C-12 5.68 -12 4.36 -12 3 C-11.01 3 -10.02 3 -9 3 C-9 4.32 -9 5.64 -9 7 C-7.576875 6.9690625 -7.576875 6.9690625 -6.125 6.9375 C-3 7 -3 7 -1 8 C-0.67 5.36 -0.34 2.72 0 0 Z " fill="#E8EDEE" transform="translate(165,98)"/>
<path d="M0 0 C2.64017933 1.32008966 5.14563667 2.74471838 7.65625 4.296875 C10.58547403 6.10225191 13.4911932 7.80650129 16.59375 9.296875 C16.59375 9.956875 16.59375 10.616875 16.59375 11.296875 C14.61375 12.286875 14.61375 12.286875 12.59375 13.296875 C13.645625 13.895 14.6975 14.493125 15.78125 15.109375 C17.95359046 16.3463415 20.09252266 17.60563903 22.21875 18.921875 C24.55146631 20.37518909 24.55146631 20.37518909 27.15625 21.171875 C31.79165421 23.31129233 33.60508361 27.01897075 35.34375 31.609375 C35.75625 32.82625 36.16875 34.043125 36.59375 35.296875 C35.10875 35.791875 35.10875 35.791875 33.59375 36.296875 C32.871875 35.4925 32.15 34.688125 31.40625 33.859375 C28.58018873 31.28451917 27.37674436 30.296875 23.59375 30.296875 C23.14386719 30.75964844 22.69398438 31.22242187 22.23046875 31.69921875 C20.25461617 33.62791494 18.66745282 34.09934947 16.03125 34.859375 C12.44135436 35.89866453 12.44135436 35.89866453 9.59375 38.296875 C1.87466953 39.04388279 -4.22546437 37.01852641 -11.40625 34.296875 C-11.40625 33.636875 -11.40625 32.976875 -11.40625 32.296875 C-5.46625 31.801875 -5.46625 31.801875 0.59375 31.296875 C-5.01625 30.966875 -10.62625 30.636875 -16.40625 30.296875 C-16.40625 28.976875 -16.40625 27.656875 -16.40625 26.296875 C-17.39625 25.966875 -18.38625 25.636875 -19.40625 25.296875 C-19.40625 24.636875 -19.40625 23.976875 -19.40625 23.296875 C-21.38625 22.966875 -23.36625 22.636875 -25.40625 22.296875 C-25.07625 21.636875 -24.74625 20.976875 -24.40625 20.296875 C-26.38625 20.296875 -28.36625 20.296875 -30.40625 20.296875 C-29.40625 17.296875 -29.40625 17.296875 -27.5078125 16.15307617 C-21.02542256 13.53366407 -15.36779736 12.6825005 -8.40625 12.609375 C-6.55201841 12.56652511 -4.69784735 12.52096724 -2.84375 12.47265625 C-1.50183594 12.44099365 -1.50183594 12.44099365 -0.1328125 12.40869141 C4.12982192 12.23388065 8.35707466 11.78567797 12.59375 11.296875 C12.59375 10.636875 12.59375 9.976875 12.59375 9.296875 C11.913125 9.07 11.2325 8.843125 10.53125 8.609375 C7.36135382 7.19303841 5.01002235 5.4118327 2.33984375 3.22265625 C0.60825755 2.08659314 0.60825755 2.08659314 -1.50390625 2.5859375 C-3.44822783 3.25574279 -3.44822783 3.25574279 -5.28125 4.359375 C-8.06314456 5.58668143 -10.40088406 5.43348254 -13.40625 5.296875 C-12.890625 5.049375 -12.375 4.801875 -11.84375 4.546875 C-9.49329369 3.39883849 -9.49329369 3.39883849 -7.7578125 2.203125 C-2.9948532 -0.87511944 -2.9948532 -0.87511944 0 0 Z " fill="#4F4F4F" transform="translate(187.40625,56.703125)"/>
<path d="M0 0 C1.8125 1.4375 1.8125 1.4375 3 3 C3 3.66 3 4.32 3 5 C4.65 5 6.3 5 8 5 C8.3403125 5.9590625 8.3403125 5.9590625 8.6875 6.9375 C9.120625 7.618125 9.55375 8.29875 10 9 C11.66475686 9.34274406 13.33195323 9.67364302 15 10 C19.8608502 12.44492068 24.20408178 15.22363971 27 20 C27.25 23.3125 27.25 23.3125 27 26 C19.55210537 27.8222254 12.52463039 28.27891068 4.875 28.1875 C3.84246094 28.18685547 2.80992187 28.18621094 1.74609375 28.18554688 C-3.92387567 28.15304387 -9.39222673 27.8404936 -15 27 C-15 27.66 -15 28.32 -15 29 C-13.35 29 -11.7 29 -10 29 C-10 29.99 -10 30.98 -10 32 C-11.98 32 -13.96 32 -16 32 C-16 32.99 -16 33.98 -16 35 C-13.69 35 -11.38 35 -9 35 C-9 35.66 -9 36.32 -9 37 C-11.97 37 -14.94 37 -18 37 C-18 32.71 -18 28.42 -18 24 C-16.68 23.67 -15.36 23.34 -14 23 C-14.33 20.36 -14.66 17.72 -15 15 C-15.99 15 -16.98 15 -18 15 C-18.66 16.32 -19.32 17.64 -20 19 C-20.33 18.67 -20.66 18.34 -21 18 C-21 16 -21 14 -21 12 C-21.33 11.01 -21.66 10.02 -22 9 C-21.01 8.34 -20.02 7.68 -19 7 C-20.32 6.34 -21.64 5.68 -23 5 C-22.41992188 4.93941406 -21.83984375 4.87882812 -21.2421875 4.81640625 C-16.79907137 4.33983439 -12.40094577 3.78991334 -8 3 C-7.67 2.01 -7.34 1.02 -7 0 C-4.26634878 -1.36682561 -2.89333621 -0.84683011 0 0 Z " fill="#0E0D0D" transform="translate(216,87)"/>
<path d="M0 0 C3.79489972 1.62221538 7.38594078 2.25894784 11.4296875 2.83203125 C18.16159779 3.93200644 23.45502219 5.74325935 28.5546875 10.51953125 C29.5446875 12.00453125 29.5446875 12.00453125 30.5546875 13.51953125 C26.5648066 12.89611236 23.11653335 11.60996392 19.421875 10.04296875 C17.35381455 9.27506312 17.35381455 9.27506312 14.5546875 10.51953125 C13.07502824 10.66526183 11.59064907 10.76616393 10.10546875 10.8359375 C8.83413086 10.8987793 8.83413086 10.8987793 7.53710938 10.96289062 C6.21549805 11.02186523 6.21549805 11.02186523 4.8671875 11.08203125 C3.97451172 11.12521484 3.08183594 11.16839844 2.16210938 11.21289062 C-0.04021358 11.31888478 -2.24264723 11.42095176 -4.4453125 11.51953125 C-4.4453125 12.17953125 -4.4453125 12.83953125 -4.4453125 13.51953125 C-1.4753125 13.51953125 1.4946875 13.51953125 4.5546875 13.51953125 C3.5646875 14.01453125 3.5646875 14.01453125 2.5546875 14.51953125 C2.5546875 15.17953125 2.5546875 15.83953125 2.5546875 16.51953125 C-0.4153125 16.51953125 -3.3853125 16.51953125 -6.4453125 16.51953125 C-6.4453125 15.85953125 -6.4453125 15.19953125 -6.4453125 14.51953125 C-10.4724949 12.31416946 -13.88076999 11.06292917 -18.4453125 10.51953125 C-18.7753125 12.16953125 -19.1053125 13.81953125 -19.4453125 15.51953125 C-20.40244141 15.59300781 -20.40244141 15.59300781 -21.37890625 15.66796875 C-22.20519531 15.74273437 -23.03148438 15.8175 -23.8828125 15.89453125 C-24.70652344 15.96414062 -25.53023437 16.03375 -26.37890625 16.10546875 C-27.06082031 16.24210937 -27.74273437 16.37875 -28.4453125 16.51953125 C-28.7753125 17.17953125 -29.1053125 17.83953125 -29.4453125 18.51953125 C-31.0953125 18.51953125 -32.7453125 18.51953125 -34.4453125 18.51953125 C-34.4453125 17.85953125 -34.4453125 17.19953125 -34.4453125 16.51953125 C-35.1053125 16.18953125 -35.7653125 15.85953125 -36.4453125 15.51953125 C-31.4953125 13.20953125 -26.5453125 10.89953125 -21.4453125 8.51953125 C-22.1053125 7.85953125 -22.7653125 7.19953125 -23.4453125 6.51953125 C-23.4453125 5.52953125 -23.4453125 4.53953125 -23.4453125 3.51953125 C-21.43563125 2.47691466 -19.41193061 1.46129602 -17.3828125 0.45703125 C-16.25746094 -0.11144531 -15.13210937 -0.67992187 -13.97265625 -1.265625 C-8.63570371 -3.10371164 -5.10400016 -2.19321549 0 0 Z " fill="#F0F0F0" transform="translate(108.4453125,63.48046875)"/>
<path d="M0 0 C2.76741317 1.21998558 5.24519594 2.71635483 7.796875 4.33984375 C8.78171875 4.95730469 9.7665625 5.57476562 10.78125 6.2109375 C11.52890625 6.76910156 12.2765625 7.32726562 13.046875 7.90234375 C13.046875 8.56234375 13.046875 9.22234375 13.046875 9.90234375 C5.06018174 11.78424083 -2.56004294 12.24713041 -10.7421875 12.29296875 C-17.01050159 12.45188376 -25.2419722 13.19119095 -29.953125 17.90234375 C-31.47240538 17.97414339 -32.99479982 17.98626382 -34.515625 17.96484375 C-35.34191406 17.95582031 -36.16820312 17.94679688 -37.01953125 17.9375 C-37.97666016 17.92009766 -37.97666016 17.92009766 -38.953125 17.90234375 C-39.43655041 11.61781336 -39.43655041 11.61781336 -37.390625 8.58984375 C-34.3739492 6.50137589 -31.50825413 5.72275817 -27.953125 4.90234375 C-28.283125 4.24234375 -28.613125 3.58234375 -28.953125 2.90234375 C-28.31286377 2.9180542 -27.67260254 2.93376465 -27.01293945 2.94995117 C-24.09725869 3.0125149 -21.18171945 3.05140183 -18.265625 3.08984375 C-17.25822266 3.11498047 -16.25082031 3.14011719 -15.21289062 3.16601562 C-9.63363897 3.22125574 -4.67730354 -0.23386518 0 0 Z " fill="#F3F3F3" transform="translate(186.953125,58.09765625)"/>
<path d="M0 0 C1.11375 1.11568359 1.11375 1.11568359 2.25 2.25390625 C5.69593386 5.69494532 9.55004952 7.68373261 13.828125 9.87304688 C18.84190678 12.57067946 22.40005001 15.80010002 25 21 C25.04022391 23.3329866 25.04320247 25.66706666 25 28 C21.27052746 27.77397136 19.40545266 26.64487694 16.75 24.1875 C9.78513431 17.9518617 1.37724864 16.19661364 -7.546875 14.22265625 C-11.45518104 12.83883296 -13.31672109 11.10830209 -16 8 C-13.9007236 6.6583797 -11.7962168 5.32663161 -9.6875 4 C-9.09259766 3.6184375 -8.49769531 3.236875 -7.88476562 2.84375 C-3.33984375 0 -3.33984375 0 0 0 Z " fill="#F7F7F7" transform="translate(120,49)"/>
<path d="M0 0 C0.99 0.33 1.98 0.66 3 1 C4.47694566 4.91390601 5.60226148 7.99434629 4 12 C4.99 12 5.98 12 7 12 C7.33 10.68 7.66 9.36 8 8 C8.66 10.31 9.32 12.62 10 15 C9.34 15 8.68 15 8 15 C9.32 18.63 10.64 22.26 12 26 C11.01 26 10.02 26 9 26 C8.67 25.34 8.34 24.68 8 24 C5.67843403 23.59270772 3.3431213 23.25561323 1 23 C1 23.99 1 24.98 1 26 C-0.91541138 26.10841951 -2.83259773 26.18578079 -4.75 26.25 C-6.35101563 26.31960937 -6.35101563 26.31960937 -7.984375 26.390625 C-11 26 -11 26 -13.375 24.15625 C-15.3327841 21.55842109 -15.35319036 20.17871322 -15 17 C-16.98 17 -18.96 17 -21 17 C-21 16.67 -21 16.34 -21 16 C-19.35 16 -17.7 16 -16 16 C-16 14.68 -16 13.36 -16 12 C-14.35 12 -12.7 12 -11 12 C-11 11.34 -11 10.68 -11 10 C-8.36 10 -5.72 10 -3 10 C-3.20625 9.2575 -3.4125 8.515 -3.625 7.75 C-4.0473774 4.65256571 -3.72946672 3.54868779 -2 1 C-1.34 0.67 -0.68 0.34 0 0 Z " fill="#E9ECEC" transform="translate(76,98)"/>
<path d="M0 0 C3.09397231 0.09805807 3.09397231 0.09805807 6.4375 -0.6875 C10 -1 10 -1 12.4375 0 C14 2 14 2 14.5 5.5 C14 9 14 9 12.265625 10.7421875 C9.5136524 12.27000677 8.3165674 12.14260533 5.25 11.625 C1.82554864 11.14012193 -0.97064699 11.01298148 -4.375 11.625 C-8 12 -8 12 -10.5 11 C-12.79987517 7.93349977 -12.53037595 5.71263162 -12 2 C-8.75720939 -2.32372082 -4.7502674 -0.82941177 0 0 Z " fill="#EBEFED" transform="translate(132,112)"/>
<path d="M0 0 C13.49835962 -0.75928273 25.52235776 1.8009824 38 7 C35.51079897 9.66337253 33.40183728 10.69160105 30 12 C29.34 12.66 28.68 13.32 28 14 C20.28091953 14.74700779 14.18078563 12.72165141 7 10 C7 9.34 7 8.68 7 8 C12.94 7.505 12.94 7.505 19 7 C13.39 6.67 7.78 6.34 2 6 C2 4.68 2 3.36 2 2 C1.34 1.34 0.68 0.68 0 0 Z " fill="#C9C9C9" transform="translate(169,81)"/>
<path d="M0 0 C14.04771456 -1.14159467 23.10405572 1.4932662 34.87695312 9.17919922 C34.54695313 9.83919922 34.21695313 10.49919922 33.87695312 11.17919922 C27.90320306 11.49638949 23.85703296 10.5870925 18.37695312 8.17919922 C6.57458796 3.46770585 -7.76964986 3.45353374 -20.12304688 6.17919922 C-20.45304688 5.51919922 -20.78304687 4.85919922 -21.12304688 4.17919922 C-13.95158865 1.42494353 -7.58480606 0.64020787 0 0 Z " fill="#F3F3F3" transform="translate(180.123046875,70.82080078125)"/>
<path d="M0 0 C0.66 0.66 1.32 1.32 2 2 C-1.96 3.98 -5.92 5.96 -10 8 C-7.36 8.66 -4.72 9.32 -2 10 C-2 10.33 -2 10.66 -2 11 C11.365 11.495 11.365 11.495 25 12 C25 12.33 25 12.66 25 13 C18.73 13.33 12.46 13.66 6 14 C6 14.66 6 15.32 6 16 C8.97 16 11.94 16 15 16 C14.01 16.495 14.01 16.495 13 17 C13 17.66 13 18.32 13 19 C10.03 19 7.06 19 4 19 C4 18.34 4 17.68 4 17 C-0.0271824 14.79463821 -3.43545749 13.54339792 -8 13 C-8.33 14.65 -8.66 16.3 -9 18 C-9.95712891 18.07347656 -9.95712891 18.07347656 -10.93359375 18.1484375 C-11.75988281 18.22320312 -12.58617188 18.29796875 -13.4375 18.375 C-14.26121094 18.44460937 -15.08492187 18.51421875 -15.93359375 18.5859375 C-16.61550781 18.72257812 -17.29742187 18.85921875 -18 19 C-18.33 19.66 -18.66 20.32 -19 21 C-20.65 21 -22.3 21 -24 21 C-24 20.34 -24 19.68 -24 19 C-24.66 18.67 -25.32 18.34 -26 18 C-21.05 15.69 -16.1 13.38 -11 11 C-11.66 10.34 -12.32 9.68 -13 9 C-13 8.01 -13 7.02 -13 6 C-8.71 4.02 -4.42 2.04 0 0 Z " fill="#5F5F5F" transform="translate(98,61)"/>
<path d="M0 0 C1.32 0 2.64 0 4 0 C5.00205736 1.66543052 6.00179077 3.33226018 7 5 C9.61311137 6.59850163 9.61311137 6.59850163 12.625 7.8125 C19.22176145 10.91874204 25.90785647 14.80279847 29.265625 21.5390625 C30.19497454 24.65337212 29.72801036 26.86955547 29 30 C28.67 30 28.34 30 28 30 C27.90203125 29.40832031 27.8040625 28.81664063 27.703125 28.20703125 C27.55359375 27.41683594 27.4040625 26.62664062 27.25 25.8125 C27.11078125 25.03519531 26.9715625 24.25789063 26.828125 23.45703125 C24.62372978 16.91663223 19.69630125 14.38139489 13.9375 11.375 C12.50662874 10.61665104 11.07814411 9.85377799 9.65234375 9.0859375 C9.02320068 8.7564209 8.39405762 8.4269043 7.74584961 8.08740234 C5.85029873 6.90675857 4.44672543 5.70029816 3 4 C3 3.34 3 2.68 3 2 C-2.10915111 4.50975844 -7.08334206 7.13194953 -12 10 C-7.88638487 15.50846164 -1.29348022 16.03273818 5.02734375 17.53515625 C13.21458373 19.64912264 19.06653614 23.02880106 24 30 C22.35 30.33 20.7 30.66 19 31 C19.66 30.34 20.32 29.68 21 29 C19.7764437 28.03451388 18.54585189 27.07794102 17.3125 26.125 C16.28576172 25.32449219 16.28576172 25.32449219 15.23828125 24.5078125 C9.94787802 20.94394575 4.14529441 20.20675047 -2.02929688 19.23242188 C-6.49303077 18.46660592 -9.98198255 17.19596227 -14 15 C-16.23525035 14.31363375 -16.23525035 14.31363375 -18 14 C-17.360625 13.7525 -16.72125 13.505 -16.0625 13.25 C-15.0415625 12.63125 -15.0415625 12.63125 -14 12 C-13.87431641 11.08541016 -13.87431641 11.08541016 -13.74609375 10.15234375 C-12.57040481 6.76069661 -10.07526589 5.98431318 -7 4.3125 C-3.28009172 2.4673105 -3.28009172 2.4673105 0 0 Z " fill="#373737" transform="translate(117,47)"/>
<path d="M0 0 C2.31 0 4.62 0 7 0 C7 2.97 7 5.94 7 9 C14.59 9 22.18 9 30 9 C30 9.33 30 9.66 30 10 C26.16668301 10.02929981 22.33339529 10.04689897 18.5 10.0625 C17.42234375 10.07087891 16.3446875 10.07925781 15.234375 10.08789062 C9.38671618 10.10571885 3.78136329 9.89105963 -2 9 C-2 9.66 -2 10.32 -2 11 C-0.35 11 1.3 11 3 11 C3 11.99 3 12.98 3 14 C1.02 14 -0.96 14 -3 14 C-3 14.99 -3 15.98 -3 17 C-0.69 17 1.62 17 4 17 C4 17.66 4 18.32 4 19 C1.03 19 -1.94 19 -5 19 C-5 14.71 -5 10.42 -5 6 C-3.68 5.34 -2.36 4.68 -1 4 C-0.19471111 1.94999129 -0.19471111 1.94999129 0 0 Z " fill="#D5DADD" transform="translate(203,105)"/>
<path d="M0 0 C2 2 2 2 2.375 5.4375 C2 9 2 9 0.4375 11 C-3.05142809 12.43135511 -5.39755972 11.933966 -9 11 C-11.31361802 7.52957297 -11.51020728 6.08165827 -11 2 C-7.81693261 -1.94700356 -4.59995823 -1.10739735 0 0 Z " fill="#090A15" transform="translate(144,112)"/>
<path d="M0 0 C1.76827226 0.10112016 3.53538293 0.22442605 5.30078125 0.3671875 C6.61079102 0.44066406 6.61079102 0.44066406 7.94726562 0.515625 C13.38554402 0.87303239 18.3692649 1.76482783 23.61328125 3.2421875 C23.28328125 3.9021875 22.95328125 4.5621875 22.61328125 5.2421875 C25.25328125 6.2321875 27.89328125 7.2221875 30.61328125 8.2421875 C27.06250963 9.42577804 25.93598643 8.94648895 22.42578125 7.8671875 C17.78609253 6.51600156 13.41833683 5.69549463 8.61328125 5.2421875 C8.61328125 5.5721875 8.61328125 5.9021875 8.61328125 6.2421875 C5.31328125 6.5721875 2.01328125 6.9021875 -1.38671875 7.2421875 C-1.38671875 6.5821875 -1.38671875 5.9221875 -1.38671875 5.2421875 C-4.35671875 4.7471875 -4.35671875 4.7471875 -7.38671875 4.2421875 C-5.67638176 0.40326518 -3.94473845 -0.04346376 0 0 Z " fill="#8D8D8D" transform="translate(169.38671875,74.7578125)"/>
<path d="M0 0 C13.42261497 -0.74264468 23.77356359 0.26245442 36 6 C35.67 6.66 35.34 7.32 35 8 C35.66 8.66 36.32 9.32 37 10 C31.61385684 11.09395146 27.51300586 10.7006992 22.3125 9.1875 C20.91378679 8.80740067 19.51402712 8.43113255 18.11328125 8.05859375 C17.42443848 7.87538574 16.7355957 7.69217773 16.02587891 7.50341797 C11.41059227 6.35654872 6.70324151 5.67698173 2 5 C2 4.67 2 4.34 2 4 C10.01701946 3.58532658 17.21930149 5.14060121 25 7 C23.35 6.34 21.7 5.68 20 5 C20 4.34 20 3.68 20 3 C15.94691667 1.89210465 11.92888626 1.66268733 7.75 1.4375 C7.00492188 1.39431641 6.25984375 1.35113281 5.4921875 1.30664062 C3.661651 1.20103275 1.83084824 1.10005799 0 1 C0 0.67 0 0.34 0 0 Z " fill="#3A3A3A" transform="translate(169,75)"/>
<path d="M0 0 C1.258125 -0.04125 2.51625 -0.0825 3.8125 -0.125 C4.52019531 -0.14820312 5.22789063 -0.17140625 5.95703125 -0.1953125 C8 0 8 0 11 2 C11.3125 4.5 11.3125 4.5 11 7 C9 9 9 9 5.875 9.125 C4.92625 9.08375 3.9775 9.0425 3 9 C3 10.32 3 11.64 3 13 C2.01 13 1.02 13 0 13 C0 8.71 0 4.42 0 0 Z " fill="#2A1D08" transform="translate(89,111)"/>
<path d="M0 0 C1.828125 0.12109375 1.828125 0.12109375 4 1 C5.484375 3.72265625 5.484375 3.72265625 6.75 7.0625 C7.17796875 8.16722656 7.6059375 9.27195312 8.046875 10.41015625 C8.36140625 11.26480469 8.6759375 12.11945313 9 13 C8.01 13 7.02 13 6 13 C5.67 12.34 5.34 11.68 5 11 C2.67843403 10.59270772 0.3431213 10.25561323 -2 10 C-2 10.99 -2 11.98 -2 13 C-2.99 13 -3.98 13 -5 13 C-4.54554036 11.58208592 -4.08625056 10.16571954 -3.625 8.75 C-3.24214844 7.56664063 -3.24214844 7.56664063 -2.8515625 6.359375 C-2.04826333 4.13372042 -1.10288338 2.09068328 0 0 Z " fill="#11111E" transform="translate(79,111)"/>
<path d="M0 0 C13.49835962 -0.75928273 25.52235776 1.8009824 38 7 C38 7.33 38 7.66 38 8 C32.24823034 7.74032643 27.15482512 6.8357442 21.6875 5 C15.92990211 3.09903538 10.6267086 2.46347572 4.58203125 2.2734375 C2 2 2 2 0 0 Z " fill="#E3E3E3" transform="translate(169,81)"/>
<path d="M0 0 C4.41077344 -0.07471341 8.82120184 -0.12886513 13.23242188 -0.16479492 C14.72988307 -0.17978888 16.22730105 -0.20019105 17.72460938 -0.22631836 C33.04478067 -0.48676127 33.04478067 -0.48676127 40 3 C38 5 38 5 34.625 5.25 C29.00796749 5.12563766 23.50962448 4.02846324 18 3 C18 2.67 18 2.34 18 2 C12.06 1.67 6.12 1.34 0 1 C0 0.67 0 0.34 0 0 Z " fill="#2D2D2D" transform="translate(94,72)"/>
<path d="M0 0 C2.97 0 5.94 0 9 0 C9 0.66 9 1.32 9 2 C7.02 2 5.04 2 3 2 C3 3.32 3 4.64 3 6 C4.98 6 6.96 6 9 6 C9 6.66 9 7.32 9 8 C7.02 8 5.04 8 3 8 C3 8.99 3 9.98 3 11 C5.31 11 7.62 11 10 11 C10 11.66 10 12.32 10 13 C6.7 13 3.4 13 0 13 C0 8.71 0 4.42 0 0 Z " fill="#000320" transform="translate(171,111)"/>
<path d="M0 0 C0 0.66 0 1.32 0 2 C-2.64 2 -5.28 2 -8 2 C-7.34 4.31 -6.68 6.62 -6 9 C-4.68 9.33 -3.36 9.66 -2 10 C-2 8.35 -2 6.7 -2 5 C-1.01 5 -0.02 5 1 5 C1 6.98 1 8.96 1 11 C-6.2 12.32 -6.2 12.32 -9.5 11 C-11.79987517 7.93349977 -11.53037595 5.71263162 -11 2 C-7.86386149 -2.0142573 -4.61083486 -0.97536891 0 0 Z " fill="#283445" transform="translate(194,112)"/>
<path d="M0 0 C2.97 0 5.94 0 9 0 C9 0.66 9 1.32 9 2 C7.02 2 5.04 2 3 2 C3 3.32 3 4.64 3 6 C4.65 6 6.3 6 8 6 C8 6.66 8 7.32 8 8 C6.35 8 4.7 8 3 8 C3 8.99 3 9.98 3 11 C5.31 11 7.62 11 10 11 C10 11.66 10 12.32 10 13 C6.7 13 3.4 13 0 13 C0 8.71 0 4.42 0 0 Z " fill="#230000" transform="translate(103,111)"/>
<path d="M0 0 C0 0.33 0 0.66 0 1 C-9.405 1.495 -9.405 1.495 -19 2 C-19 2.66 -19 3.32 -19 4 C-16.03 4 -13.06 4 -10 4 C-10.99 4.495 -10.99 4.495 -12 5 C-12 5.66 -12 6.32 -12 7 C-14.97 7 -17.94 7 -21 7 C-21 6.34 -21 5.68 -21 5 C-22.64821244 3.96986723 -24.31503702 2.96885372 -26 2 C-26 1.67 -26 1.34 -26 1 C-17.3387414 -0.25981943 -8.72998757 -0.09020653 0 0 Z " fill="#D7D7D7" transform="translate(123,73)"/>
<path d="M0 0 C0.54269531 0.76699219 1.08539063 1.53398438 1.64453125 2.32421875 C4.21265107 5.2415688 6.15135908 6.28248347 9.6875 7.8125 C16.25012453 10.92914421 22.92176509 14.83070157 26.265625 21.5390625 C27.19497454 24.65337212 26.72801036 26.86955547 26 30 C25.67 30 25.34 30 25 30 C24.90203125 29.40832031 24.8040625 28.81664063 24.703125 28.20703125 C24.55359375 27.41683594 24.4040625 26.62664062 24.25 25.8125 C24.11078125 25.03519531 23.9715625 24.25789063 23.828125 23.45703125 C21.62372978 16.91663223 16.69630125 14.38139489 10.9375 11.375 C9.50662874 10.61665104 8.07814411 9.85377799 6.65234375 9.0859375 C6.02320068 8.7564209 5.39405762 8.4269043 4.74584961 8.08740234 C2.85029873 6.90675857 1.44672543 5.70029816 0 4 C0 3.34 0 2.68 0 2 C-0.66 1.67 -1.32 1.34 -2 1 C-1.34 0.67 -0.68 0.34 0 0 Z " fill="#555555" transform="translate(120,47)"/>
<path d="M0 0 C2.97 0 5.94 0 9 0 C9 0.66 9 1.32 9 2 C6.69 2 4.38 2 2 2 C2 3.32 2 4.64 2 6 C3.98 6 5.96 6 8 6 C8 6.66 8 7.32 8 8 C6.02 8 4.04 8 2 8 C2 8.99 2 9.98 2 11 C4.31 11 6.62 11 9 11 C9 11.66 9 12.32 9 13 C6.03 13 3.06 13 0 13 C0 8.71 0 4.42 0 0 Z " fill="#000002" transform="translate(198,111)"/>
<path d="M0 0 C0 0.66 0 1.32 0 2 C-2.64 2 -5.28 2 -8 2 C-7.34 4.31 -6.68 6.62 -6 9 C-4.02 9 -2.04 9 0 9 C0 9.66 0 10.32 0 11 C-6.22680412 12.31720856 -6.22680412 12.31720856 -9.4375 11 C-11 9 -11 9 -11.5 5.5 C-11 2 -11 2 -9.4375 0 C-6.03627009 -1.39537637 -3.5344893 -0.74768043 0 0 Z " fill="#1C1310" transform="translate(131,112)"/>
<path d="M0 0 C0.99 0.33 1.98 0.66 3 1 C2.34 1 1.68 1 1 1 C1 2.32 1 3.64 1 5 C0.01 5 -0.98 5 -2 5 C-2 5.66 -2 6.32 -2 7 C-3.98 7.33 -5.96 7.66 -8 8 C-8 9.65 -8 11.3 -8 13 C-8.99 13 -9.98 13 -11 13 C-11 10.03 -11 7.06 -11 4 C-10.34 4 -9.68 4 -9 4 C-9 3.34 -9 2.68 -9 2 C-4.545 2.99 -4.545 2.99 0 4 C0 2.68 0 1.36 0 0 Z " fill="#141414" transform="translate(91,97)"/>
<path d="M0 0 C4.55555556 0.55555556 4.55555556 0.55555556 6 2 C6.1875 4.4375 6.1875 4.4375 6 7 C5.34 7.66 4.68 8.32 4 9 C-0.55555556 8.44444444 -0.55555556 8.44444444 -2 7 C-2.1875 4.5625 -2.1875 4.5625 -2 2 C-1.34 1.34 -0.68 0.68 0 0 Z " fill="#E9E6DC" transform="translate(138,113)"/>
<path d="M0 0 C0.73605469 0.05220703 1.47210938 0.10441406 2.23046875 0.15820312 C4.02910629 0.28667723 5.82712909 0.42370949 7.625 0.5625 C3.48646386 4.22267645 1.36536142 5.12805627 -4.015625 4.90234375 C-7.76392379 4.36243979 -10.91001674 3.0744927 -14.375 1.5625 C-14.375 1.2325 -14.375 0.9025 -14.375 0.5625 C-9.42149325 -0.49226879 -4.99660651 -0.39304228 0 0 Z " fill="#777777" transform="translate(194.375,90.4375)"/>
<path d="M0 0 C0.66 0.33 1.32 0.66 2 1 C2 1.66 2 2.32 2 3 C0.865625 2.979375 -0.26875 2.95875 -1.4375 2.9375 C-4.81575674 2.58422523 -4.81575674 2.58422523 -6 4 C-6.04063832 5.66617115 -6.042721 7.33388095 -6 9 C-3.23735711 9.59732819 -0.83967231 10 2 10 C2 10.66 2 11.32 2 12 C-5.34939759 13.3253012 -5.34939759 13.3253012 -8 12 C-9.55461098 8.89077804 -9.36555039 6.41180361 -9 3 C-6.82851715 -0.73977602 -4.0241372 -0.34247976 0 0 Z " fill="#19141A" transform="translate(71,111)"/>
<path d="M0 0 C2.97 0.495 2.97 0.495 6 1 C6 1.99 6 2.98 6 4 C9.96 4 13.92 4 18 4 C18 4.33 18 4.66 18 5 C6.62018175 5.12818318 -4.64732258 4.79568202 -16 4 C-16 3.67 -16 3.34 -16 3 C-10.72 3 -5.44 3 0 3 C0 2.01 0 1.02 0 0 Z " fill="#787878" transform="translate(126,102)"/>
<path d="M0 0 C0.8515625 2.06640625 0.8515625 2.06640625 1.625 4.5625 C1.88539063 5.38878906 2.14578125 6.21507813 2.4140625 7.06640625 C2.60742188 7.70449219 2.80078125 8.34257813 3 9 C2.01 9 1.02 9 0 9 C-0.598125 8.175 -1.19625 7.35 -1.8125 6.5 C-3.80722348 3.64346567 -3.80722348 3.64346567 -7.25 3.6875 C-8.61125 3.8421875 -8.61125 3.8421875 -10 4 C-10.33 3.01 -10.66 2.02 -11 1 C-9.5437328 0.63743142 -8.08488815 0.28520207 -6.625 -0.0625 C-5.40683594 -0.35833984 -5.40683594 -0.35833984 -4.1640625 -0.66015625 C-2 -1 -2 -1 0 0 Z " fill="#E4E4E4" transform="translate(219,83)"/>
<path d="M0 0 C1.79279468 1.72937034 3.21818115 3.5676993 4.65625 5.59765625 C3.00625 5.92765625 1.35625 6.25765625 -0.34375 6.59765625 C0.31625 5.93765625 0.97625 5.27765625 1.65625 4.59765625 C0.4326937 3.63217013 -0.79789811 2.67559727 -2.03125 1.72265625 C-2.71574219 1.18898438 -3.40023437 0.6553125 -4.10546875 0.10546875 C-8.56172063 -2.89647405 -12.87951432 -3.7811387 -18.15625 -4.52734375 C-19.89841797 -4.77871094 -19.89841797 -4.77871094 -21.67578125 -5.03515625 C-22.55621094 -5.15632813 -23.43664062 -5.2775 -24.34375 -5.40234375 C-24.34375 -5.73234375 -24.34375 -6.06234375 -24.34375 -6.40234375 C-15.27265801 -8.61972179 -7.1738179 -5.69953753 0 0 Z " fill="#434343" transform="translate(136.34375,71.40234375)"/>
<path d="M0 0 C0.99 0 1.98 0 3 0 C3 3.63 3 7.26 3 11 C4.98 11 6.96 11 9 11 C9 11.66 9 12.32 9 13 C6.03 13 3.06 13 0 13 C0 8.71 0 4.42 0 0 Z " fill="#21001B" transform="translate(160,111)"/>
<path d="M0 0 C0.99 0 1.98 0 3 0 C3 3.63 3 7.26 3 11 C4.98 11 6.96 11 9 11 C9 11.66 9 12.32 9 13 C6.03 13 3.06 13 0 13 C0 8.71 0 4.42 0 0 Z " fill="#21001B" transform="translate(149,111)"/>
<path d="M0 0 C1.32 0.33 2.64 0.66 4 1 C4 3.31 4 5.62 4 8 C1.69 8.33 -0.62 8.66 -3 9 C-2.01 6.03 -1.02 3.06 0 0 Z " fill="#594E49" transform="translate(79,111)"/>
<path d="M0 0 C0.33 0.66 0.66 1.32 1 2 C3.64 2 6.28 2 9 2 C9 2.33 9 2.66 9 3 C7.02 3 5.04 3 3 3 C3.185625 3.61875 3.37125 4.2375 3.5625 4.875 C4 7 4 7 3 9 C0.50638429 7.79618552 -1.68143083 6.54571278 -4 5 C-4 4.34 -4 3.68 -4 3 C-3.01 3 -2.02 3 -1 3 C-1.99 2.34 -2.98 1.68 -4 1 C-2.68 0.67 -1.36 0.34 0 0 Z " fill="#898989" transform="translate(205,81)"/>
<path d="M0 0 C2.22574335 0.22451458 4.45581519 0.40782878 6.6875 0.5625 C7.86699219 0.64628906 9.04648438 0.73007813 10.26171875 0.81640625 C11.61716797 0.90728516 11.61716797 0.90728516 13 1 C13 1.33 13 1.66 13 2 C11.02966797 2.09087891 11.02966797 2.09087891 9.01953125 2.18359375 C7.28384459 2.26803256 5.54816802 2.35267888 3.8125 2.4375 C2.94818359 2.47681641 2.08386719 2.51613281 1.19335938 2.55664062 C-2.95914122 2.76347016 -6.94537862 3.00103531 -11 4 C-11.33 3.34 -11.66 2.68 -12 2 C-10.56656 1.46809459 -9.12804633 0.94984742 -7.6875 0.4375 C-6.48673828 0.00244141 -6.48673828 0.00244141 -5.26171875 -0.44140625 C-3 -1 -3 -1 0 0 Z " fill="#C3C3C3" transform="translate(171,73)"/>
<path d="M0 0 C0 0.66 0 1.32 0 2 C-0.94875 1.979375 -1.8975 1.95875 -2.875 1.9375 C-5.90666283 1.77448174 -5.90666283 1.77448174 -8 3 C-8.65555119 5.52733235 -8.65555119 5.52733235 -9 8 C-9.66 8 -10.32 8 -11 8 C-11.48038431 2.59567654 -11.48038431 2.59567654 -9.4375 0.0625 C-6.03339271 -1.42134164 -3.56538192 -0.75421541 0 0 Z " fill="#190F0D" transform="translate(194,112)"/>
<path d="M0 0 C2.97 0 5.94 0 9 0 C9 0.66 9 1.32 9 2 C6.69 2 4.38 2 2 2 C1.67 5.63 1.34 9.26 1 13 C0.67 13 0.34 13 0 13 C0 8.71 0 4.42 0 0 Z " fill="#330000" transform="translate(171,111)"/>
<path d="M0 0 C0.99 0.33 1.98 0.66 3 1 C3 1.66 3 2.32 3 3 C3.99 3 4.98 3 6 3 C6.33 2.34 6.66 1.68 7 1 C7 2.98 7 4.96 7 7 C6.01 7.495 6.01 7.495 5 8 C4.67 7.34 4.34 6.68 4 6 C2.68 6.33 1.36 6.66 0 7 C0 4.69 0 2.38 0 0 Z " fill="#2A2A2A" transform="translate(169,99)"/>
<path d="M0 0 C6.93 0.495 6.93 0.495 14 1 C13.01 1.495 13.01 1.495 12 2 C12 2.66 12 3.32 12 4 C9.03 4 6.06 4 3 4 C3 3.34 3 2.68 3 2 C2.01 1.34 1.02 0.68 0 0 Z " fill="#898989" transform="translate(99,76)"/>
<path d="M0 0 C4.80399854 1.16460571 7.58447919 4.10313312 10.68359375 7.7578125 C12.1969451 10.33544951 12.31807874 11.57006505 11.9375 14.5 C11.628125 15.655 11.31875 16.81 11 18 C10.67 18 10.34 18 10 18 C9.90203125 17.40832031 9.8040625 16.81664063 9.703125 16.20703125 C8.31597191 8.87664467 5.33929485 5.14860575 0 0 Z " fill="#424242" transform="translate(135,59)"/>
<path d="M0 0 C6.19518473 0.41588046 11.26689311 1.60251894 17 4 C17 4.33 17 4.66 17 5 C11.08507728 4.54775239 5.64800112 3.8417395 0 2 C0 1.34 0 0.68 0 0 Z " fill="#F3F3F3" transform="translate(190,84)"/>
<path d="M0 0 C0.33 0 0.66 0 1 0 C1.66 1.98 2.32 3.96 3 6 C4.98 6 6.96 6 9 6 C9 6.66 9 7.32 9 8 C5.75 8.75 5.75 8.75 2 9 C-0.4375 7.0625 -0.4375 7.0625 -2 5 C-1.34 5 -0.68 5 0 5 C0 3.35 0 1.7 0 0 Z " fill="#1F2C37" transform="translate(122,115)"/>
<path d="M0 0 C1.65 0 3.3 0 5 0 C4.690625 0.53625 4.38125 1.0725 4.0625 1.625 C2.82172561 4.3984957 2.4090325 7.00042837 2 10 C1.67 10 1.34 10 1 10 C1 8.35 1 6.7 1 5 C-0.98 5 -2.96 5 -5 5 C-5 4.67 -5 4.34 -5 4 C-3.35 4 -1.7 4 0 4 C0 2.68 0 1.36 0 0 Z " fill="#E0CFB7" transform="translate(60,110)"/>
<path d="M0 0 C0.99 0 1.98 0 3 0 C3.33 1.98 3.66 3.96 4 6 C2.35 6.66 0.7 7.32 -1 8 C-0.67 5.36 -0.34 2.72 0 0 Z " fill="#D3D3D3" transform="translate(192,100)"/>
<path d="M0 0 C0.66 0 1.32 0 2 0 C5 5.75 5 5.75 5 8 C4.01 8 3.02 8 2 8 C0.25 6.25 0.25 6.25 -1 4 C-0.6875 1.75 -0.6875 1.75 0 0 Z " fill="#EAEAEA" transform="translate(217,84)"/>
<path d="M0 0 C2.475 0.495 2.475 0.495 5 1 C5 2.32 5 3.64 5 5 C3.35 5 1.7 5 0 5 C0 3.35 0 1.7 0 0 Z " fill="#DAE5EB" transform="translate(92,113)"/>
<path d="M0 0 C2.64 0 5.28 0 8 0 C8 0.66 8 1.32 8 2 C6.02 2 4.04 2 2 2 C2 3.32 2 4.64 2 6 C1.34 6 0.68 6 0 6 C0 4.02 0 2.04 0 0 Z " fill="#000C18" transform="translate(104,111)"/>
<path d="M0 0 C0.99 0.33 1.98 0.66 3 1 C2.34 1 1.68 1 1 1 C1 2.32 1 3.64 1 5 C0.01 5 -0.98 5 -2 5 C-2 5.66 -2 6.32 -2 7 C-3.98 7.33 -5.96 7.66 -8 8 C-7.34 7.67 -6.68 7.34 -6 7 C-6 6.34 -6 5.68 -6 5 C-4.02 4.67 -2.04 4.34 0 4 C0 2.68 0 1.36 0 0 Z " fill="#303030" transform="translate(91,97)"/>
<path d="M0 0 C1.32 0 2.64 0 4 0 C4 2.64 4 5.28 4 8 C4.66 8.33 5.32 8.66 6 9 C5.01 9 4.02 9 3 9 C2.67 7.35 2.34 5.7 2 4 C1.01 4.495 1.01 4.495 0 5 C0 3.35 0 1.7 0 0 Z " fill="#BFBFBF" transform="translate(165,98)"/>
<path d="M0 0 C0.99 0.33 1.98 0.66 3 1 C2 2.9375 2 2.9375 0 5 C-2.69924572 5.66549451 -5.20631637 5.81680763 -8 6 C-6.66666667 5 -5.33333333 4 -4 3 C-3.319375 2.4225 -2.63875 1.845 -1.9375 1.25 C-1.298125 0.8375 -0.65875 0.425 0 0 Z " fill="#E3E3E3" transform="translate(89,72)"/>
<path d="M0 0 C0.33 0.99 0.66 1.98 1 3 C3.31 3 5.62 3 8 3 C8 3.66 8 4.32 8 5 C5.03 5 2.06 5 -1 5 C-0.67 3.35 -0.34 1.7 0 0 Z " fill="#001325" transform="translate(105,119)"/>
<path d="M0 0 C2.97 0.99 5.94 1.98 9 3 C8.34 3.66 7.68 4.32 7 5 C3.375 4.625 3.375 4.625 0 4 C-0.33 3.01 -0.66 2.02 -1 1 C-0.67 0.67 -0.34 0.34 0 0 Z " fill="#444444" transform="translate(125,72)"/>
<path d="M0 0 C3 1 3 1 5 3 C5.99 3.66 6.98 4.32 8 5 C5.69 5.66 3.38 6.32 1 7 C1 6.01 1 5.02 1 4 C0.6937566 2.66018514 0.36548445 1.32488113 0 0 Z " fill="#3A3A3A" transform="translate(85,67)"/>
<path d="M0 0 C0.99 0.33 1.98 0.66 3 1 C1.75023244 4.65316671 1.32901247 5.78065836 -2 8 C-1.125 2.25 -1.125 2.25 0 0 Z " fill="#A6A6A6" transform="translate(71,79)"/>
<path d="M0 0 C4.54805635 -0.17835515 7.8794254 0.00214565 12 2 C12 2.33 12 2.66 12 3 C10.56163249 2.88541307 9.12429034 2.75790884 7.6875 2.625 C6.88699219 2.55539063 6.08648437 2.48578125 5.26171875 2.4140625 C3 2 3 2 0 0 Z " fill="#636363" transform="translate(189,79)"/>
<path d="M0 0 C1.33333333 2.66666667 2.66666667 5.33333333 4 8 C1.525 7.01 1.525 7.01 -1 6 C-1.042721 4.33388095 -1.04063832 2.66617115 -1 1 C-0.67 0.67 -0.34 0.34 0 0 Z " fill="#1C2734" transform="translate(135,116)"/>
<path d="M0 0 C-0.66 0 -1.32 0 -2 0 C-2 0.99 -2 1.98 -2 3 C-1.34 3.33 -0.68 3.66 0 4 C-1.65 4 -3.3 4 -5 4 C-5 3.34 -5 2.68 -5 2 C-5.66 1.67 -6.32 1.34 -7 1 C-3.375 -1.125 -3.375 -1.125 0 0 Z " fill="#343434" transform="translate(79,78)"/>
<path d="M0 0 C0 0.66 0 1.32 0 2 C-3.96 1.67 -7.92 1.34 -12 1 C-12 0.67 -12 0.34 -12 0 C-7.6835078 -0.76173392 -4.25566547 -1.16063604 0 0 Z " fill="#686868" transform="translate(124,65)"/>
<path d="M0 0 C0.66 0 1.32 0 2 0 C1.40072174 3.35595828 0.15377564 5.37801226 -2 8 C-2.125 5.125 -2.125 5.125 -2 2 C-1.34 1.34 -0.68 0.68 0 0 Z " fill="#3A1C16" transform="translate(135,112)"/>
<path d="M0 0 C0 1.65 0 3.3 0 5 C0.66 5.33 1.32 5.66 2 6 C1.01 6 0.02 6 -1 6 C-1 5.34 -1 4.68 -1 4 C-1.66 4 -2.32 4 -3 4 C-3 3.34 -3 2.68 -3 2 C-3.66 1.67 -4.32 1.34 -5 1 C-2 0 -2 0 0 0 Z " fill="#6B6B6B" transform="translate(189,102)"/>
<path d="M0 0 C1.32 0 2.64 0 4 0 C4 1.65 4 3.3 4 5 C3.67 4.34 3.34 3.68 3 3 C2.34 3 1.68 3 1 3 C0.67 3.99 0.34 4.98 0 6 C0 4.02 0 2.04 0 0 Z " fill="#DFDFDF" transform="translate(176,100)"/>
</svg>
